<?xml version="1.0" encoding="utf-8"?>
<!-- Generator: Adobe Illustrator 17.0.0, SVG Export Plug-In . SVG Version: 6.00 Build 0)  -->
<!DOCTYPE svg PUBLIC "-//W3C//DTD SVG 1.1//EN" "http://www.w3.org/Graphics/SVG/1.1/DTD/svg11.dtd">
<svg version="1.1" id="Isolation_Mode" xmlns="http://www.w3.org/2000/svg" xmlns:xlink="http://www.w3.org/1999/xlink" x="0px"
	 y="0px" width="792px" height="792px" viewBox="0 0 792 792" enable-background="new 0 0 792 792" xml:space="preserve">
<path fill="#353535" d="M567.846,430.463c-4.106,16.851-8.111,33.302-12.125,49.751c-7.205,29.531-14.428,59.058-21.62,88.593
	c-5.46,22.423-10.919,44.846-16.31,67.286c-2.689,11.19-10.431,17.555-22.422,18.193c-0.997,0.053-1.999,0.022-2.999,0.022
	c-95.321,0.001-190.641,0.027-285.961-0.093c-4.062-0.005-8.291-0.886-12.146-2.216c-6.856-2.367-11.244-7.198-13.003-14.527
	c-13.495-56.201-27.102-112.375-40.676-168.556c-2.691-11.139-5.499-22.252-8.037-33.425c-0.876-3.858-2.513-5.633-6.746-5.122
	c-3.611,0.436-7.332,0.233-10.984,0.001c-10.126-0.642-18.048-8.84-18.163-19.002c-0.153-13.495-0.084-26.993-0.039-40.49
	c0.042-12.433,8.015-20.603,20.59-20.752c15.16-0.179,30.324-0.041,45.486-0.059c1.607-0.002,3.213-0.133,5.534-0.235
	c-3.743-3.765-6.931-7.032-10.185-10.233c-24.825-24.421-46.875-50.954-62.409-82.396c-6.231-12.612-11.019-25.794-11.644-39.956
	c-1.094-24.781,13.481-40.883,42.371-39.223c25.375,1.458,47.979,11.817,69.458,24.414c49.539,29.055,90.85,67.134,123.34,114.61
	c2.898,4.235,5.512,8.665,8.742,13.769c3.84-8.814,7.429-17.054,11.02-25.293c22.823-52.369,45.605-104.755,68.501-157.092
	c5.477-12.52,19.946-17.955,32.727-12.648c12.094,5.021,18.524,19.115,13.405,31.536c-8.73,21.186-18.118,42.101-27.262,63.115
	c-16.895,38.824-33.815,77.637-50.714,116.46c-0.32,0.735-0.51,1.527-0.932,2.814c7.88,0,15.413,0,22.495,0
	c1.443-9.803,1.962-19.665,4.454-29.001c6.206-23.245,19.235-41.524,41.893-51.479c11.346-4.985,22.708-3.533,32.861,3.204
	c10.349,6.867,19.739,7.546,30.325,0.178c13.926-9.693,30.426-8.008,45.864,3.587c19.373,14.55,29.155,34.472,32.2,58.099
	c0.106,0.826,0.282,1.66,0.25,2.483c-0.307,7.93,0.545,14.39,9.808,17.987c6.069,2.357,7.721,9.664,7.779,16.283
	c0.11,12.661,0.161,25.326,0.001,37.986c-0.169,13.398-8.324,21.353-21.616,21.423C576.801,430.481,572.646,430.463,567.846,430.463
	z M349.182,418.08c0-0.043,0-0.087,0-0.13c29.331,0,58.663,0,87.994,0c47.498,0,94.995,0.007,142.493-0.01
	c8.167-0.003,10.047-1.904,10.056-9.992c0.012-11.665,0.008-23.33-0.003-34.995c-0.008-8.19-2.176-10.39-10.276-10.394
	c-21.166-0.01-42.331-0.003-63.497-0.003c-132.161,0-264.323-0.001-396.484,0.002c-7.917,0-10.464,2.522-10.486,10.376
	c-0.033,11.664-0.086,23.328-0.052,34.992c0.022,7.667,2.581,10.151,10.274,10.151C195.861,418.082,272.522,418.08,349.182,418.08z
	 M178.648,207.265c-4.831-2.238-8.979-4.32-13.249-6.11c-14.792-6.199-29.83-11.42-46.236-10.613
	c-12.308,0.606-21.199,7.511-22.058,18.275c-0.508,6.365-0.522,13.258,1.394,19.221c3.638,11.322,7.821,22.699,13.549,33.076
	c18.734,33.939,44.829,61.848,74.051,86.956c1.554,1.335,4.219,1.914,6.373,1.928c20.989,0.135,41.98,0.082,62.97,0.055
	c1.405-0.002,2.809-0.226,3.263-0.265c0.87-3.538,1.153-6.519,2.314-9.106c6.862-15.299,13.956-30.493,20.878-45.766
	c0.611-1.348,1.313-3.642,0.671-4.411c-4.323-5.178-8.998-10.063-13.498-14.977c-1.383,0.734-2.125,1.095-2.836,1.51
	c-15.785,9.232-31.49,18.609-47.444,27.539c-2.08,1.164-6.402,1.08-7.949-0.331c-1.569-1.431-1.667-5.354-1.168-7.946
	c0.578-3.002,2.534-5.733,3.851-8.601c6.709-14.608,13.406-29.222,20.242-44.13c-5.917-4.492-11.579-8.79-17.185-13.046
	c-2.724,1.585-5.161,2.994-7.59,4.417c-13.488,7.897-26.993,15.766-40.448,23.72c-3.012,1.78-5.923,2.422-8.701-0.107
	c-2.571-2.342-2.598-5.2-1.056-8.181c0.458-0.885,0.84-1.81,1.257-2.716C166.148,234.403,172.253,221.149,178.648,207.265z
	 M274.246,622.189c4.495,0,8.991-0.044,13.485,0.012c4.599,0.058,6.778-2.5,6.855-6.743c0.159-8.82,0.186-17.648-0.017-26.466
	c-0.091-3.969-2.187-6.48-6.593-6.454c-8.987,0.054-17.976,0.034-26.963,0.018c-4.154-0.007-6.111,2.197-6.135,6.177
	c-0.054,8.99-0.011,17.98-0.025,26.97c-0.007,4.298,2.083,6.483,6.407,6.481C265.589,622.184,269.918,622.186,274.246,622.189z
	 M274.544,453.908c-4.493,0-8.986-0.006-13.48,0.002c-4.048,0.007-6.205,1.968-6.207,6.094c-0.006,8.986,0.025,17.973-0.01,26.959
	c-0.017,4.336,2.149,6.48,6.396,6.5c8.82,0.042,17.64-0.003,26.46,0.019c4.515,0.011,6.805-2.438,6.879-6.707
	c0.153-8.817,0.148-17.641-0.005-26.458c-0.071-4.058-2.182-6.468-6.565-6.409C283.524,453.969,279.034,453.922,274.544,453.908z
	 M219.426,474.055c0-4.656,0.034-9.312-0.01-13.968c-0.038-4.027-2.046-6.168-6.16-6.168c-8.979,0.001-17.959,0.033-26.938-0.013
	c-4.653-0.024-6.566,2.464-6.572,6.831c-0.012,8.647-0.061,17.294,0.005,25.94c0.033,4.352,2.19,6.792,6.734,6.798
	c8.811,0.011,17.624,0.156,26.432,0.016c4.315-0.069,6.678-2.381,6.547-6.967C219.347,482.372,219.44,478.212,219.426,474.055z
	 M369.183,602.291c-0.006,0-0.012,0-0.018,0c0-4.33-0.071-8.661,0.019-12.989c0.094-4.541-1.96-6.779-6.562-6.754
	c-8.826,0.047-17.652,0.019-26.478,0.009c-4.287-0.005-6.438,2.105-6.438,6.404c0.001,8.826,0.048,17.652-0.028,26.478
	c-0.039,4.583,2.138,6.751,6.657,6.751c8.826,0,17.652,0.013,26.478,0.032c4.316,0.009,6.413-2.122,6.377-6.442
	C369.154,611.284,369.183,606.787,369.183,602.291z M329.702,473.46c0,4.49,0.034,8.98-0.01,13.47
	c-0.042,4.317,2.162,6.491,6.354,6.528c8.979,0.078,17.961,0.085,26.94,0.001c3.588-0.034,6.117-1.635,6.141-5.614
	c0.057-9.479,0.064-18.958,0.001-28.436c-0.022-3.352-1.874-5.387-5.239-5.425c-9.477-0.106-18.958-0.12-28.435,0.008
	c-3.71,0.05-5.802,2.064-5.755,5.999C329.754,464.479,329.712,468.97,329.702,473.46z M404.739,602.328
	c0,4.497,0.019,8.994-0.006,13.491c-0.022,4.031,1.83,6.321,5.971,6.343c9.16,0.049,18.321,0.071,27.481,0.015
	c3.575-0.022,5.635-1.929,5.656-5.562c0.057-9.493,0.04-18.986-0.013-28.479c-0.02-3.622-1.99-5.542-5.595-5.56
	c-9.16-0.046-18.321-0.023-27.482-0.009c-4.154,0.006-6.016,2.244-6.008,6.269C404.753,593.334,404.746,597.831,404.739,602.328z
	 M384.538,557.76c0,0.006,0,0.012,0,0.018c4.322,0,8.647-0.09,12.967,0.025c4.599,0.122,6.868-2.259,6.939-6.581
	c0.146-8.809,0.156-17.624-0.01-26.432c-0.075-3.984-2.087-6.568-6.482-6.562c-8.977,0.012-17.955-0.011-26.932,0.019
	c-4.014,0.014-6.207,1.998-6.215,6.107c-0.017,9.144-0.011,18.287-0.005,27.431c0.003,4.172,2.244,5.998,6.272,5.979
	C375.56,557.743,380.049,557.76,384.538,557.76z M499.155,493.517c0-0.013,0-0.026,0-0.039c4.49,0,8.98,0.011,13.47-0.003
	c3.995-0.013,6.365-2.04,6.421-6.015c0.131-9.308,0.097-18.619-0.024-27.928c-0.046-3.545-2.117-5.547-5.696-5.572
	c-9.312-0.066-18.625-0.068-27.937-0.009c-3.795,0.024-5.847,2.019-5.853,5.889c-0.016,9.146-0.082,18.293,0.028,27.438
	c0.051,4.186,2.31,6.338,6.631,6.257C490.514,493.454,494.835,493.517,499.155,493.517z M214.827,538.17c0.059,0,0.119,0,0.178,0
	c0,4.159,0.269,8.34-0.068,12.471c-0.418,5.132,2.195,7.012,6.728,7.059c8.817,0.092,17.636,0.073,26.454,0.043
	c4.219-0.015,6.495-2.166,6.502-6.444c0.014-8.818-0.057-17.636-0.031-26.454c0.013-4.359-2.233-6.437-6.421-6.49
	c-8.982-0.112-17.966-0.18-26.948-0.171c-4.231,0.004-6.437,2.18-6.401,6.515C214.855,529.189,214.827,533.68,214.827,538.17z
	 M443.888,473.62c0.01,0,0.019,0,0.029,0c0-4.494-0.03-8.987,0.009-13.48c0.036-4.082-1.867-6.221-6.014-6.221
	c-8.987,0-17.974,0.014-26.962,0c-4.063-0.006-6.216,1.885-6.212,6.046c0.009,9.154-0.025,18.308,0.015,27.461
	c0.017,3.772,1.93,5.972,5.78,6.005c9.153,0.079,18.307,0.096,27.461,0.03c3.747-0.027,5.879-1.961,5.891-5.862
	C443.899,482.94,443.888,478.28,443.888,473.62z M459.196,557.743c4.657,0,9.314,0.006,13.972-0.002
	c3.833-0.006,5.995-2.009,6.034-5.762c0.097-9.313,0.014-18.628-0.057-27.941c-0.027-3.607-2.055-5.665-5.559-5.714
	c-9.47-0.132-18.944-0.131-28.413,0.007c-3.203,0.047-5.442,1.836-5.483,5.258c-0.115,9.473-0.148,18.949-0.047,28.423
	c0.041,3.794,2.248,5.728,6.081,5.724C450.214,557.73,454.705,557.734,459.196,557.743z M310.04,557.756
	c4.324,0,8.649-0.016,12.973,0.005c4.339,0.021,6.371-2.132,6.351-6.449c-0.041-8.815-0.044-17.631,0.006-26.446
	c0.024-4.283-1.985-6.597-6.274-6.624c-8.981-0.058-17.963-0.053-26.944,0.017c-4.206,0.033-6.413,2.215-6.409,6.513
	c0.008,8.815,0.008,17.631-0.021,26.446c-0.014,4.282,2.067,6.491,6.347,6.527C300.725,557.783,305.382,557.753,310.04,557.756z
	 M491.257,315.775c9.873-0.25,17.682-3.982,23.642-11.447c2.407-3.015,2.711-6.111-0.436-8.805
	c-3.262-2.793-6.066-1.525-8.662,1.258c-9.083,9.732-19.05,9.657-28.21-0.204c-2.439-2.626-5.053-3.901-8.222-1.296
	c-3.119,2.564-3.33,5.447-0.891,8.705C474.268,311.721,482.134,315.254,491.257,315.775z M310.625,326.73
	c-12.45,7.277-24.433,14.278-36.406,21.296c-0.521,0.305-0.944,0.778-1.47,1.22c0.455,0.35,0.7,0.705,0.947,0.706
	c14.435,0.057,28.871,0.167,43.306,0.062c3.901-0.028,4.903-2.955,3.448-5.878C317.517,338.245,314.006,332.642,310.625,326.73z"/>
<path fill="#353535" d="M493.188,252.294c1.35-18.01,6.168-33.861,22.389-43.719c11.346-6.895,24.089-9.356,37.03-10.867
	c4.083-0.477,7.402,1.782,6.948,5.94c-1.893,17.348-4.993,34.474-18.39,47.28c-10.055,9.611-22.931,12.191-36.286,13.028
	c-0.994,0.062-1.999-0.062-2.995-0.012c-7.071,0.359-9.106-1.643-8.706-8.559C493.246,254.224,493.188,253.057,493.188,252.294z
	 M545.369,211.739c-26.781,3.561-38.541,16.523-39.041,39.29C528.297,250.161,542.255,239.425,545.369,211.739z"/>
</svg>
